<svg height="512" viewBox="0 0 128 128" width="512" xmlns="http://www.w3.org/2000/svg"><path d="m76.745 66.9a23.547 23.547 0 0 0 12.284-15.755 3.472 3.472 0 0 0 .909.121c2.451 0 4.37-2.528 4.37-5.756a7.515 7.515 0 0 0 -.324-2.207v-7.938a27.985 27.985 0 1 0 -55.969 0v7.941a7.533 7.533 0 0 0 -.323 2.2c0 3.228 1.919 5.756 4.37 5.756a3.472 3.472 0 0 0 .909-.121 23.547 23.547 0 0 0 12.284 15.759 30.1 30.1 0 0 0 -28.442 30.02v11.962a8.964 8.964 0 0 0 2.487 6.211l4.866 5.1c0 .071-.021.138-.021.21a4.219 4.219 0 0 0 4.214 4.215h55.281a4.22 4.22 0 0 0 4.215-4.215c0-.072-.017-.139-.021-.21l4.865-5.1a8.963 8.963 0 0 0 2.488-6.211v-11.962a30.1 30.1 0 0 0 -28.442-30.02z" fill="#e6e7e8"/><path d="m71.124 63.858h-18.249a29.061 29.061 0 0 0 -29.061 29.061v11.963a8 8 0 0 0 2.21 5.52l5.178 5.431a3.211 3.211 0 0 1 3.158-2.643h55.28a3.211 3.211 0 0 1 3.158 2.643l5.178-5.431a8 8 0 0 0 2.21-5.52v-11.963a29.061 29.061 0 0 0 -29.062-29.061z" fill="#fa759e"/><path d="m62.145 64.444h-.29a22.4 22.4 0 0 1 -8.727-1.759v3.234a8.872 8.872 0 0 0 17.744 0v-3.234a22.4 22.4 0 0 1 -8.727 1.759z" fill="#fff"/><path d="m62 4.38a26.985 26.985 0 0 0 -26.985 26.984v8.144c.537-1.623 1.694-2.755 3.047-2.755a2.55 2.55 0 0 1 1.33.388v-3.758a19.256 19.256 0 0 1 5.57-13.571 7.578 7.578 0 0 1 7.838-1.743 30.213 30.213 0 0 0 9.2 1.28 30.213 30.213 0 0 0 9.2-1.28 7.578 7.578 0 0 1 7.833 1.743 19.256 19.256 0 0 1 5.57 13.571v3.758a2.55 2.55 0 0 1 1.33-.388c1.352 0 2.51 1.132 3.047 2.755v-8.144a26.985 26.985 0 0 0 -26.98-26.984z" fill="#6dc9f7"/><path d="m85.938 36.753a2.55 2.55 0 0 0 -1.33.388v4.839a22.6 22.6 0 0 1 -.3 3.666 2.63 2.63 0 0 0 1.632.62c1.861 0 3.369-2.129 3.369-4.756s-1.509-4.757-3.371-4.757z" fill="#fff"/><path d="m39.392 41.98v-4.839a2.55 2.55 0 0 0 -1.33-.388c-1.861 0-3.369 2.13-3.369 4.757s1.508 4.756 3.369 4.756a2.632 2.632 0 0 0 1.632-.62 22.6 22.6 0 0 1 -.302-3.666z" fill="#fff"/><path d="m79.038 19.812a7.578 7.578 0 0 0 -7.833-1.743 30.213 30.213 0 0 1 -9.2 1.28 30.213 30.213 0 0 1 -9.2-1.28 7.578 7.578 0 0 0 -7.833 1.743 19.256 19.256 0 0 0 -5.57 13.571v8.6a22.463 22.463 0 0 0 22.453 22.461h.29a22.463 22.463 0 0 0 22.463-22.464v-8.6a19.256 19.256 0 0 0 -5.57-13.568z" fill="#fff"/><path d="m56.736 29.54h-8.876a5.074 5.074 0 0 0 -5.074 5.074v3.462a5.892 5.892 0 0 0 5.891 5.891h5.646a5.891 5.891 0 0 0 5.89-5.891v-5.059a3.476 3.476 0 0 0 -3.477-3.477z" fill="#d4fbff"/><path d="m76.139 29.54h-10.065a2.288 2.288 0 0 0 -2.288 2.287v6.249a5.892 5.892 0 0 0 5.891 5.891h5.646a5.891 5.891 0 0 0 5.89-5.891v-3.462a5.073 5.073 0 0 0 -5.074-5.074z" fill="#d4fbff"/><rect fill="#6dc9f7" height="39.399" rx="3.215" width="61.711" x="31.145" y="73.791"/><path d="m34.36 73.791h55.28a3.214 3.214 0 0 1 3.215 3.215v3a3.214 3.214 0 0 0 -3.215-3.215h-55.28a3.214 3.214 0 0 0 -3.215 3.215v-3a3.214 3.214 0 0 1 3.215-3.215z" fill="#fff"/><path d="m89.64 113.19h-55.28a3.215 3.215 0 1 0 0 6.43h55.28a3.215 3.215 0 1 0 0-6.43z" fill="#0089ef"/><g fill="#3a2c60"><path d="m72.745 62.9a23.545 23.545 0 0 0 12.285-15.759 3.425 3.425 0 0 0 .908.125c2.451 0 4.37-2.528 4.37-5.756a7.515 7.515 0 0 0 -.324-2.207v-7.939a27.985 27.985 0 0 0 -55.969 0v7.942a7.533 7.533 0 0 0 -.323 2.2c0 3.228 1.919 5.756 4.37 5.756a3.425 3.425 0 0 0 .908-.125 23.545 23.545 0 0 0 12.285 15.763 30.1 30.1 0 0 0 -28.442 30.02v11.962a8.964 8.964 0 0 0 2.487 6.211l4.866 5.1c0 .071-.021.138-.021.21a4.219 4.219 0 0 0 4.214 4.215h55.281a4.22 4.22 0 0 0 4.215-4.215c0-.072-.017-.139-.021-.21l4.865-5.1a8.963 8.963 0 0 0 2.488-6.211v-11.962a30.1 30.1 0 0 0 -28.442-30.02zm-17.792 9.891h-20.594a4.145 4.145 0 0 0 -1.219.2 27.965 27.965 0 0 1 18.988-8.115v1.042a9.8 9.8 0 0 0 2.825 6.873zm3.218 0a7.875 7.875 0 0 1 -4.043-6.872v-1.788a23.353 23.353 0 0 0 7.727 1.313h.29a23.353 23.353 0 0 0 7.727-1.313v1.788a7.875 7.875 0 0 1 -4.043 6.872zm13.7-6.872v-1.042a27.967 27.967 0 0 1 18.987 8.115 4.167 4.167 0 0 0 -1.219-.2h-20.592a9.8 9.8 0 0 0 2.825-6.873zm10.321-31.719a6.077 6.077 0 0 0 -6.052-5.66h-10.066a3.291 3.291 0 0 0 -3.288 3.287v.766h-1.616a4.467 4.467 0 0 0 -4.434-4.053h-8.876a6.077 6.077 0 0 0 -6.053 5.66l-1.415.4v-1.217a18.208 18.208 0 0 1 5.282-12.868 6.353 6.353 0 0 1 4.555-1.868 7.112 7.112 0 0 1 2.25.37 31.232 31.232 0 0 0 9.521 1.332 31.232 31.232 0 0 0 9.521-1.332 6.552 6.552 0 0 1 6.8 1.5 18.211 18.211 0 0 1 5.282 12.868v1.215zm-1.979.418v3.462a4.9 4.9 0 0 1 -4.89 4.891h-5.646a4.9 4.9 0 0 1 -4.891-4.891v-6.253a1.289 1.289 0 0 1 1.288-1.287h10.066a4.078 4.078 0 0 1 4.073 4.074zm-21-1.6v5.059a4.9 4.9 0 0 1 -4.89 4.891h-5.646a4.9 4.9 0 0 1 -4.891-4.891v-3.463a4.078 4.078 0 0 1 4.074-4.074h8.876a2.48 2.48 0 0 1 2.477 2.477zm26.725 12.248a1.448 1.448 0 0 1 -.549-.124 23.4 23.4 0 0 0 .219-3.162v-4.18a1.477 1.477 0 0 1 .33-.042c1.285 0 2.37 1.72 2.37 3.757s-1.085 3.751-2.37 3.751zm-23.938-39.886a26.013 26.013 0 0 1 25.984 25.984v5.041a3.589 3.589 0 0 0 -2.046-.652c-.112 0-.219.022-.33.033v-2.4a20.2 20.2 0 0 0 -5.858-14.276 8.543 8.543 0 0 0 -8.861-1.99 29.211 29.211 0 0 1 -8.889 1.229 29.211 29.211 0 0 1 -8.889-1.229 8.543 8.543 0 0 0 -8.861 1.99 20.2 20.2 0 0 0 -5.858 14.273v2.4c-.111-.011-.218-.033-.33-.033a3.586 3.586 0 0 0 -2.047.653v-5.039a26.014 26.014 0 0 1 25.985-25.984zm-23.938 39.886c-1.285 0-2.37-1.72-2.37-3.756s1.085-3.757 2.37-3.757a1.47 1.47 0 0 1 .33.042v4.185a23.4 23.4 0 0 0 .219 3.162 1.448 1.448 0 0 1 -.549.124zm2.33-3.286v-5.3l1.394-.4v1.8a6.9 6.9 0 0 0 6.891 6.891h5.646a6.9 6.9 0 0 0 6.89-6.891v-3.487h1.573v3.483a6.9 6.9 0 0 0 6.891 6.891h5.646a6.9 6.9 0 0 0 6.89-6.891v-1.8l1.4.4v5.3a21.488 21.488 0 0 1 -21.468 21.468h-.29a21.487 21.487 0 0 1 -21.463-21.464zm-13.645 67.733a6.974 6.974 0 0 1 -1.934-4.831v-11.962a27.909 27.909 0 0 1 5.392-16.512 4.206 4.206 0 0 0 -.06.6v15.482a1 1 0 1 0 2 0v-15.484a2.216 2.216 0 0 1 2.214-2.215h55.281a2.217 2.217 0 0 1 2.215 2.215v32.969a2.218 2.218 0 0 1 -2.215 2.215h-55.281a2.217 2.217 0 0 1 -2.214-2.215v-4.1a1 1 0 0 0 -2 0v4.1a4.173 4.173 0 0 0 1.521 3.215 4.236 4.236 0 0 0 -.793.85zm62.893 8.907h-55.281a2.215 2.215 0 0 1 0-4.43h55.281a2.215 2.215 0 1 1 0 4.43zm9.547-13.738a6.973 6.973 0 0 1 -1.935 4.831l-4.126 4.327a4.236 4.236 0 0 0 -.793-.85 4.174 4.174 0 0 0 1.522-3.215v-32.969a4.221 4.221 0 0 0 -.06-.6 27.909 27.909 0 0 1 5.392 16.514z"/><path d="m52.026 36.425a2.261 2.261 0 1 0 2.26 2.261 2.261 2.261 0 0 0 -2.26-2.261z"/><path d="m71.974 36.425a2.261 2.261 0 1 0 2.261 2.261 2.261 2.261 0 0 0 -2.261-2.261z"/><path d="m62 50.749a3.575 3.575 0 0 0 3.571-3.572v-1.506a1 1 0 1 0 -2 0v1.506a1.571 1.571 0 1 1 -3.142 0v-1.506a1 1 0 1 0 -2 0v1.506a3.575 3.575 0 0 0 3.571 3.572z"/><path d="m75.024 33.108-4.424-.771a1 1 0 1 0 -.344 1.97l4.427.772a1.017 1.017 0 0 0 .173.014 1 1 0 0 0 .17-1.985z"/><path d="m53.4 32.337-4.426.771a1 1 0 0 0 .17 1.985 1.017 1.017 0 0 0 .173-.014l4.427-.772a1 1 0 1 0 -.344-1.97z"/><path d="m67.807 53.947a1 1 0 0 0 -1.594-1.208 5.554 5.554 0 0 1 -4.213 1.918 5.36 5.36 0 0 1 -4.2-1.9 1 1 0 0 0 -1.618 1.175 7.368 7.368 0 0 0 5.818 2.725 7.578 7.578 0 0 0 5.807-2.71z"/><path d="m49.132 97.573 7.231 3.134a1.283 1.283 0 0 0 1.794-1.177v-.022a1.283 1.283 0 0 0 -.813-1.194l-6.244-2.46 6.239-2.4a1.282 1.282 0 0 0 .822-1.2v-.035a1.283 1.283 0 0 0 -1.794-1.177l-7.231 3.134a1.84 1.84 0 0 0 -1.109 1.689v.02a1.841 1.841 0 0 0 1.105 1.688z"/><path d="m60.13 103.6a1.168 1.168 0 0 0 .281.034 1.188 1.188 0 0 0 1.158-.912l3.18-13.139a1.192 1.192 0 0 0 -2.318-.56l-3.18 13.138a1.194 1.194 0 0 0 .879 1.439z"/><path d="m67.639 100.7 7.231-3.149a1.841 1.841 0 0 0 -.005-3.379l-7.23-3.119a1.283 1.283 0 1 0 -.972 2.375l6.262 2.422-6.268 2.461a1.284 1.284 0 0 0 -.814 1.194v.018a1.284 1.284 0 0 0 1.796 1.177z"/><path d="m31.145 103.251a1 1 0 0 0 1-1v-6a1 1 0 0 0 -2 0v6a1 1 0 0 0 1 1z"/></g></svg>